<?xml version="1.0" standalone="no"?>
<!DOCTYPE svg PUBLIC "-//W3C//DTD SVG 20010904//EN"
 "http://www.w3.org/TR/2001/REC-SVG-20010904/DTD/svg10.dtd">
<svg version="1.0" xmlns="http://www.w3.org/2000/svg"
 width="460.000000pt" height="460.000000pt" viewBox="0 0 460.000000 460.000000"
 preserveAspectRatio="xMidYMid meet">
<metadata>
Created by potrace 1.11, written by Peter Selinger 2001-2013
</metadata>
<g transform="translate(0.000000,460.000000) scale(0.100000,-0.100000)"
fill="#000000" stroke="none">
<path d="M13 4593 c-7 -3 -13 -21 -13 -40 0 -35 0 -35 40 -31 37 3 40 2 40
-22 0 -24 3 -26 39 -24 31 1 40 -2 44 -17 5 -20 -7 -26 -18 -9 -10 16 -72 12
-79 -6 -3 -8 -2 -12 3 -9 5 3 13 1 16 -5 5 -8 11 -8 20 0 10 8 15 8 20 0 4 -6
16 -8 27 -4 11 3 36 6 57 7 20 0 29 2 20 4 -10 2 -21 21 -27 43 -9 38 -9 39
10 26 28 -20 50 -54 43 -66 -3 -6 -2 -10 4 -10 18 0 21 16 9 48 -13 33 -3 57
12 32 7 -12 12 -12 22 -2 14 14 98 16 98 2 0 -5 -8 -9 -17 -8 -39 3 -63 -3
-63 -15 0 -7 12 -13 28 -12 22 0 27 -4 26 -23 0 -15 4 -21 13 -18 7 3 13 0 13
-6 0 -7 5 -6 15 2 8 7 15 8 15 3 0 -5 16 -9 35 -9 19 0 35 4 35 8 0 8 -15 12
-37 9 -7 -1 -13 3 -13 10 0 7 -9 9 -26 5 -19 -5 -25 -3 -21 6 5 14 56 12 71
-3 17 -16 26 -10 26 16 0 30 26 34 46 8 12 -16 13 -16 14 -2 0 9 8 20 18 24
15 6 14 9 -11 31 -23 19 -26 27 -17 43 10 19 5 20 -257 19 -148 -1 -274 -3
-280 -5z m245 -10 c-33 -8 -18 -23 22 -23 22 0 40 -4 40 -10 0 -13 -24 -13
-71 2 -35 10 -37 12 -21 24 9 7 24 13 32 13 11 -1 10 -3 -2 -6z m222 -3 c0 -5
-9 -10 -20 -10 -11 0 -23 -7 -27 -16 -3 -8 -12 -13 -19 -10 -8 3 -14 1 -14 -5
0 -6 -13 -2 -30 8 -37 21 -38 33 -5 33 14 0 25 -5 25 -11 0 -5 5 -7 12 -3 6 4
25 11 42 15 17 4 32 7 34 8 1 1 2 -3 2 -9z m-430 -10 c0 -5 7 -7 15 -4 8 4 15
1 15 -5 0 -12 -33 -31 -52 -30 -10 0 -10 2 0 6 17 7 15 23 -4 23 -8 0 -12 5
-9 10 8 13 35 13 35 0z m65 0 c3 -5 -1 -10 -9 -10 -9 0 -16 5 -16 10 0 6 4 10
9 10 6 0 13 -4 16 -10z m42 -32 c-3 -8 -6 -5 -6 6 -1 11 2 17 5 13 3 -3 4 -12
1 -19z m-34 -18 c-3 -11 -9 -20 -14 -20 -11 0 -11 3 -3 24 9 23 23 20 17 -4z
m307 -15 c0 -8 -4 -15 -10 -15 -5 0 -10 7 -10 15 0 8 5 15 10 15 6 0 10 -7 10
-15z"/>
<path d="M598 4593 c-20 -5 -23 -18 -8 -28 6 -3 10 -15 10 -26 0 -10 9 -24 20
-31 11 -7 20 -19 20 -27 0 -11 3 -11 15 -1 12 10 13 16 4 26 -9 11 -8 14 5 14
11 0 16 9 16 30 0 18 5 30 13 30 15 0 17 -55 4 -76 -4 -7 0 -17 8 -24 8 -7 15
-8 15 -3 0 5 14 8 30 5 38 -5 40 -25 2 -21 -37 4 -56 -8 -39 -25 8 -9 18 -11
29 -5 26 14 37 11 31 -10 -3 -11 2 -21 14 -25 16 -7 16 -9 -7 -26 -14 -10 -22
-22 -18 -26 4 -4 14 -2 21 4 8 7 17 9 21 5 4 -4 4 0 1 8 -3 9 1 22 10 29 14
11 14 14 0 24 -9 6 -18 29 -20 51 -2 22 -8 41 -14 43 -17 6 -13 22 5 22 8 0
13 3 11 8 -3 4 15 5 39 3 24 -1 44 -6 44 -10 0 -4 -15 -5 -34 -3 -31 4 -34 2
-29 -17 6 -25 6 -25 41 -8 15 8 46 13 68 13 29 -1 40 2 37 11 -3 7 7 15 22 19
22 5 32 2 46 -17 l19 -24 6 23 c7 26 26 30 23 5 -4 -42 2 -51 36 -57 19 -4 47
-13 62 -21 25 -13 29 -13 40 1 10 14 14 13 32 -5 16 -16 17 -21 6 -21 -8 0
-15 -7 -15 -15 0 -9 -9 -15 -22 -15 -18 0 -20 -2 -8 -10 9 -6 18 -6 24 0 6 6
18 10 28 10 10 0 18 5 18 10 0 6 16 10 35 10 19 0 35 5 35 10 0 6 -16 10 -35
10 -24 0 -35 5 -35 15 0 18 4 18 46 3 18 -6 35 -20 37 -30 3 -10 12 -18 20
-18 10 0 13 7 10 18 -2 10 5 35 16 56 27 48 27 50 -14 43 -19 -3 -35 -2 -35 4
0 5 12 10 28 11 86 5 139 3 155 -4 10 -5 25 -4 37 2 17 9 20 8 20 -10 0 -19
-4 -20 -54 -14 -58 7 -106 0 -106 -16 0 -6 34 -10 79 -10 75 0 80 -1 84 -22 2
-13 5 -4 6 20 0 23 5 42 11 42 5 0 7 -6 5 -12 -3 -7 -1 -26 4 -43 l9 -30 1 28
c1 15 4 27 9 27 15 -1 47 -26 48 -37 1 -7 2 -22 3 -34 1 -19 2 -19 23 -5 12 9
36 16 53 16 32 1 65 20 65 39 0 6 17 11 40 11 22 0 40 -4 40 -10 0 -5 -9 -10
-19 -10 -11 0 -23 -5 -27 -11 -5 -8 3 -10 25 -7 17 2 31 1 31 -4 0 -4 -10 -8
-22 -9 -23 0 -23 0 1 -10 l24 -10 -22 -20 c-11 -11 -26 -17 -32 -14 -5 4 -16
1 -24 -5 -10 -8 -15 -9 -15 -2 0 6 -6 9 -14 6 -8 -3 -12 -12 -9 -21 5 -12 1
-14 -17 -8 -17 5 -21 4 -15 -6 6 -9 4 -11 -8 -6 -8 3 -21 -1 -28 -9 -7 -8 -20
-12 -30 -9 -18 6 -27 -9 -11 -18 4 -2 1 -2 -6 0 -63 16 -65 16 -60 2 3 -8 13
-13 22 -13 9 1 15 -3 13 -10 -3 -6 -10 -10 -16 -9 -6 2 -11 -4 -11 -12 0 -11
-7 -14 -24 -11 -14 3 -30 -2 -37 -10 -6 -8 -8 -14 -3 -14 13 0 -28 -26 -54
-35 -13 -4 -32 -15 -42 -25 -11 -11 -27 -16 -38 -13 -14 3 -21 -2 -25 -16 -4
-15 -10 -19 -23 -14 -11 4 -15 3 -10 -5 4 -6 -10 -25 -31 -44 -20 -18 -55 -50
-77 -70 -22 -21 -46 -38 -54 -38 -7 0 -10 -5 -7 -10 3 -6 -19 -35 -50 -65 -31
-30 -54 -59 -51 -64 4 -5 -19 -38 -49 -73 -31 -35 -70 -88 -87 -118 -17 -30
-33 -57 -37 -60 -3 -3 -7 -19 -8 -37 -2 -17 -8 -44 -14 -60 -18 -47 -31 -610
-16 -694 8 -44 7 -48 -21 -75 -17 -16 -42 -38 -55 -49 -39 -30 -57 -111 -55
-246 l2 -114 5 122 c4 77 11 127 19 135 9 9 12 7 12 -13 l1 -24 14 25 c8 14
14 21 15 16 0 -5 7 -3 15 4 36 29 36 7 3 -267 -11 -97 -1 -173 30 -220 27 -43
32 -23 7 33 -29 65 -32 124 -11 204 8 30 17 84 20 120 7 71 16 89 35 66 7 -8
18 -13 25 -10 15 6 38 -40 30 -61 -5 -11 -2 -13 10 -9 23 9 31 -21 12 -48 -27
-38 -14 -54 18 -22 15 14 17 13 25 -9 5 -14 14 -26 20 -28 5 -2 11 -33 12 -69
2 -66 6 -81 34 -160 9 -25 27 -85 40 -135 13 -49 27 -98 30 -107 5 -14 2 -18
-14 -18 -11 0 -35 -9 -52 -19 -34 -21 -76 -16 -105 13 -8 9 -22 16 -31 16 -9
0 -22 8 -29 18 -12 16 -13 15 -14 -5 0 -34 76 -123 126 -145 39 -17 50 -18 82
-7 20 6 43 16 50 22 20 15 27 -1 47 -107 19 -100 48 -203 71 -253 12 -26 14
-80 14 -261 -1 -126 -6 -248 -11 -271 -13 -60 -62 -117 -118 -138 -25 -9 -70
-30 -100 -45 -29 -15 -58 -28 -65 -28 -20 0 -97 -39 -168 -86 -36 -24 -90 -55
-120 -68 -29 -13 -82 -42 -118 -65 -36 -23 -72 -44 -80 -47 -8 -3 -37 -17 -63
-30 -26 -14 -55 -23 -63 -20 -8 3 -13 2 -10 -2 8 -13 -6 -28 -45 -50 -20 -11
-47 -26 -60 -34 -13 -7 -26 -16 -29 -19 -12 -15 -159 -106 -200 -124 -25 -11
-47 -22 -50 -26 -3 -3 -15 -11 -27 -18 -13 -6 -23 -16 -23 -21 0 -6 249 -10
676 -10 l677 0 -7 30 c-3 19 -2 29 4 25 6 -3 10 -1 10 4 0 6 -4 11 -10 11 -15
0 -12 26 5 40 12 10 14 24 9 57 -6 44 -6 44 20 37 23 -5 27 -3 32 25 4 17 11
34 15 37 15 9 10 46 -7 59 -15 10 -12 14 20 34 30 19 35 26 25 37 -9 11 -9 18
-1 26 19 19 14 30 -10 23 -17 -6 -20 -4 -14 11 4 9 2 20 -4 24 -6 4 -12 68
-14 156 -3 82 -5 154 -6 159 0 6 1 42 3 80 2 39 -2 100 -9 138 -6 37 -9 67 -6
67 3 0 1 5 -5 11 -6 6 -9 17 -6 24 2 8 0 23 -6 34 -10 18 -9 20 6 14 15 -5 16
-3 6 8 -7 7 -13 20 -13 28 0 8 62 -49 138 -126 75 -77 151 -148 169 -157 17
-8 41 -28 52 -42 12 -15 21 -23 21 -18 0 5 9 -8 20 -28 11 -21 17 -44 14 -53
-4 -8 -1 -15 6 -15 8 0 10 -8 7 -22 -4 -12 -2 -27 2 -32 5 -6 16 -37 25 -68
13 -44 22 -60 45 -71 26 -13 30 -13 35 0 12 31 5 45 -31 60 -27 12 -33 18 -21
21 10 2 25 -4 34 -12 8 -9 20 -13 26 -10 7 4 4 10 -6 16 -21 12 -21 28 2 28
13 1 11 5 -10 21 -30 22 -38 45 -13 36 8 -4 17 -2 20 3 4 6 -1 10 -9 10 -9 0
-16 4 -16 9 0 15 37 23 57 13 38 -20 176 -32 353 -31 124 0 186 -3 188 -10 2
-6 10 -11 18 -11 16 0 19 -16 4 -25 -6 -3 -10 -16 -10 -28 0 -46 -31 -103 -66
-122 -24 -13 -31 -22 -24 -29 7 -7 16 -7 30 2 26 16 70 15 70 -1 0 -8 -10 -19
-22 -25 l-23 -11 25 0 c37 0 62 26 98 102 18 37 32 70 32 74 0 20 64 133 76
133 8 0 11 6 7 17 -3 10 -3 15 1 12 8 -8 86 67 86 82 0 5 11 11 25 15 14 3 25
11 25 16 0 6 8 7 17 4 10 -4 14 -4 10 0 -7 8 20 44 33 44 12 0 17 -59 6 -64
-7 -3 -4 -9 7 -16 13 -8 15 -15 7 -30 -7 -12 -6 -20 1 -22 7 -2 6 -17 -4 -46
-10 -29 -11 -42 -3 -42 6 0 3 -7 -6 -14 -10 -7 -20 -26 -22 -42 -2 -16 -8 -40
-12 -54 -4 -14 -6 -27 -5 -29 2 -2 -2 -7 -7 -10 -6 -3 -11 -24 -13 -46 -2 -22
-11 -52 -22 -67 -10 -16 -16 -32 -13 -37 3 -5 -1 -14 -10 -21 -12 -11 -12 -15
-2 -21 9 -6 9 -9 1 -9 -6 0 -9 -8 -6 -18 2 -10 -3 -24 -11 -31 -9 -8 -16 -21
-16 -30 0 -21 -29 -102 -41 -117 -5 -7 -9 -16 -7 -20 3 -14 -13 -57 -27 -71
-11 -10 -13 -49 -6 -105 1 -5 37 -8 81 -8 64 0 80 3 80 15 0 8 9 20 20 27 11
7 20 19 20 26 0 7 -5 10 -10 7 -5 -3 -10 -2 -10 3 0 15 28 22 34 9 2 -7 5 -2
5 11 1 15 7 22 22 22 17 0 20 4 15 24 -5 19 0 29 16 40 12 9 23 15 24 13 6 -6
-10 -56 -17 -52 -4 3 -6 13 -3 23 5 13 4 14 -4 3 -11 -16 -4 -53 9 -45 16 9 9
-20 -16 -71 l-25 -50 21 -3 c25 -4 39 13 39 46 0 13 4 21 9 18 10 -7 24 22 16
34 -3 5 8 8 25 8 28 -1 30 -4 31 -37 0 -29 2 -32 9 -16 7 16 9 17 9 3 1 -9 -3
-20 -9 -23 -5 -3 -10 -13 -10 -21 0 -12 105 -14 760 -14 l760 0 0 41 c0 31 -6
47 -23 63 -13 12 -29 20 -36 18 -6 -2 -17 0 -24 6 -7 5 -25 12 -41 16 -15 4
-47 15 -70 26 -22 10 -84 30 -136 44 -52 14 -97 31 -98 36 -2 6 -7 8 -12 5 -4
-3 -42 6 -84 20 -42 14 -83 25 -91 25 -8 0 -24 9 -36 21 -11 11 -23 18 -26 15
-3 -2 -17 0 -32 6 -14 5 -57 19 -96 30 -38 10 -79 25 -90 32 -11 7 -29 15 -40
18 -130 38 -274 112 -275 143 0 6 -19 19 -41 30 -23 11 -67 44 -98 73 -70 67
-93 83 -134 91 l-32 7 2 70 c5 145 32 301 62 361 32 66 66 189 76 278 18 162
24 198 39 220 19 29 25 30 87 11 82 -25 151 3 188 76 12 24 30 57 40 74 10 17
22 46 26 65 4 19 20 72 35 119 15 47 33 112 40 144 22 109 13 288 -17 335 -31
49 -69 127 -67 141 0 8 4 22 8 32 4 9 5 87 2 175 -7 194 -9 223 -18 223 -11 0
-27 61 -30 112 -2 27 -6 48 -9 48 -6 0 -27 85 -28 115 0 18 -7 88 -10 107 -1
3 -9 9 -18 11 -17 4 -17 5 0 6 9 0 17 8 17 16 0 8 7 15 17 15 15 0 15 1 0 18
-23 26 -23 63 1 56 11 -3 9 -1 -5 8 -28 17 -58 56 -68 88 -9 30 -57 75 -106
100 -42 22 -79 70 -54 70 24 0 16 17 -27 58 -10 9 -18 23 -19 32 0 10 -2 11
-6 3 -8 -20 -23 -15 -23 8 0 11 4 18 9 15 5 -3 14 0 20 8 14 17 -6 28 -29 15
-10 -4 -25 0 -40 12 l-25 19 40 1 c22 1 32 3 23 6 -10 2 -18 10 -18 16 0 20
-121 77 -163 77 -23 0 -36 4 -32 10 3 6 -3 10 -14 10 -12 0 -21 7 -21 15 0 8
-8 15 -17 16 -11 0 -13 3 -5 6 23 9 12 23 -19 23 -22 0 -30 4 -26 14 3 7 -4
26 -15 42 -11 16 -18 21 -14 12 3 -10 1 -20 -4 -23 -6 -4 -10 -2 -10 4 0 6 -8
8 -17 5 -17 -5 -17 -5 0 6 21 14 12 33 -13 25 -12 -4 -20 1 -25 17 -6 19 -8
20 -12 6 -6 -23 -25 -23 -21 -1 2 9 -7 22 -19 28 -17 9 -20 14 -11 23 9 9 9
15 1 23 -7 7 -12 3 -15 -15 -3 -15 1 -31 8 -37 8 -6 14 -16 14 -22 0 -5 -8 -3
-18 6 -10 10 -24 17 -30 17 -18 0 -62 22 -62 32 0 4 7 8 15 8 8 0 15 -4 15 -9
0 -5 7 -11 14 -14 11 -4 13 -1 9 10 -5 12 -2 15 10 10 9 -3 17 -2 17 3 0 5
-14 10 -32 12 -47 5 -49 28 -2 28 47 0 41 6 -13 15 -41 6 -42 5 -37 -21 4 -24
2 -26 -20 -22 -14 3 -24 2 -23 -1 1 -3 -2 -7 -8 -8 -5 -2 -11 2 -11 7 -1 6 -2
15 -3 20 0 6 -9 10 -18 9 -11 0 -13 -3 -5 -6 6 -2 12 -12 11 -21 0 -11 -2 -12
-6 -4 -3 7 -25 12 -60 12 -48 0 -54 2 -48 18 5 13 3 14 -6 5 -13 -13 -42 -6
-33 8 3 5 -2 9 -11 9 -9 0 -13 -4 -10 -10 3 -5 -3 -10 -14 -10 -12 0 -21 4
-21 9 0 5 -8 11 -17 14 -12 2 -7 7 17 14 l35 11 -47 1 c-42 1 -48 4 -48 23 0
19 1 20 13 6 10 -14 14 -15 24 -3 10 11 9 15 -8 20 -15 5 -18 10 -10 18 6 6
11 20 11 32 0 16 7 20 40 22 22 0 40 -3 40 -8 0 -5 21 -9 46 -9 50 0 51 -15 1
-26 -28 -6 -29 -8 -12 -15 18 -7 18 -8 -5 -8 -15 -1 -30 7 -38 19 -15 25 -32
26 -32 1 0 -13 13 -24 40 -35 22 -9 40 -20 40 -26 0 -11 43 -14 53 -3 4 3 2
12 -4 19 -8 10 2 14 45 19 31 4 56 11 56 16 0 16 29 10 39 -8 9 -16 10 -17 11
-1 0 21 32 32 63 22 20 -7 18 -9 -18 -20 l-40 -12 31 -7 c25 -5 31 -11 27 -26
-3 -10 0 -19 6 -19 6 0 11 14 11 30 0 27 2 30 25 24 15 -4 25 -2 25 5 0 6 -6
10 -12 9 -9 -2 -12 9 -10 35 l3 37 -269 0 c-231 0 -271 -2 -276 -15 -3 -8 -14
-15 -25 -15 -11 0 -21 -4 -23 -9 -1 -5 -12 -11 -23 -13 -17 -2 -19 2 -17 25 2
19 -1 27 -11 27 -9 0 -18 -6 -20 -12 -4 -10 -6 -10 -6 0 -1 9 -26 12 -91 12
-82 0 -110 -9 -77 -24 10 -5 10 -7 0 -12 -24 -11 -13 -23 17 -19 17 3 43 7 59
10 23 3 31 0 36 -15 8 -26 30 -25 50 3 10 12 15 15 12 7 -2 -8 2 -30 9 -49 17
-42 17 -44 -1 -37 -8 3 -15 1 -15 -4 0 -20 -29 -9 -33 13 -4 19 -4 18 -6 -6
-1 -20 5 -30 22 -38 17 -7 9 -8 -33 -5 -37 4 -50 2 -40 -4 18 -12 2 -12 -25 0
-11 5 -15 9 -8 9 9 1 8 8 -2 28 -10 19 -11 31 -4 38 12 12 29 -10 29 -37 0
-10 5 -18 10 -18 17 0 23 29 10 45 -6 8 -9 23 -5 35 6 18 2 20 -35 20 -38 0
-41 -2 -36 -22 3 -13 3 -17 0 -10 -3 6 -12 12 -20 12 -8 0 -14 4 -14 9 0 6
-12 6 -29 1 -32 -9 -111 -2 -111 10 0 4 29 11 65 15 36 3 65 10 65 15 0 22
-41 27 -232 29 -172 1 -208 -1 -208 -13 0 -8 -11 -17 -24 -20 -13 -3 -31 -9
-40 -12 -9 -3 -16 -2 -16 4 0 5 15 13 33 17 28 6 30 8 12 15 -11 5 -46 9 -77
9 -47 1 -58 -2 -58 -15 0 -9 -6 -14 -12 -11 -7 2 -12 9 -11 15 2 10 -612 15
-649 5z m256 -14 c28 0 29 -1 10 -11 -15 -7 -33 -5 -65 7 -39 14 -40 15 -10
10 18 -3 48 -5 65 -6z m926 1 c0 -5 -4 -10 -9 -10 -6 0 -13 5 -16 10 -3 6 1
10 9 10 9 0 16 -4 16 -10z m773 3 c-7 -2 -19 -2 -25 0 -7 3 -2 5 12 5 14 0 19
-2 13 -5z m167 -3 c0 -5 -8 -10 -17 -10 -15 0 -16 2 -3 10 19 12 20 12 20 0z
m-1492 -12 c-5 -15 -38 -19 -38 -4 0 6 9 12 21 13 11 1 19 -3 17 -9z m284 0
c-9 -9 -15 -9 -24 0 -9 9 -7 12 12 12 19 0 21 -3 12 -12z m148 -8 c0 -11 -4
-20 -10 -20 -5 0 -10 9 -10 20 0 11 5 20 10 20 6 0 10 -9 10 -20z m628 4 c-2
-9 -18 -25 -36 -34 -20 -11 -28 -20 -20 -23 7 -3 3 -6 -9 -6 -30 -1 -30 16 -1
25 l23 7 -25 10 c-25 10 -25 10 -2 14 12 3 22 9 22 14 0 5 12 9 26 9 18 0 25
-5 22 -16z m-1651 -16 c-3 -8 -6 -5 -6 6 -1 11 2 17 5 13 3 -3 4 -12 1 -19z
m2006 7 c-6 -17 -25 -15 -31 3 -2 7 5 12 17 12 14 0 19 -5 14 -15z m-68 -5 c7
-12 -2 -12 -30 0 -19 8 -19 9 2 9 12 1 25 -3 28 -9z m-1445 -15 c0 -8 -4 -15
-10 -15 -5 0 -7 7 -4 15 4 8 8 15 10 15 2 0 4 -7 4 -15z m140 5 c0 -5 -7 -10
-15 -10 -8 0 -15 5 -15 10 0 6 7 10 15 10 8 0 15 -4 15 -10z m40 -6 c0 -9 -5
-14 -12 -12 -18 6 -21 28 -4 28 9 0 16 -7 16 -16z m40 6 c0 -5 -4 -10 -10 -10
-5 0 -10 5 -10 10 0 6 5 10 10 10 6 0 10 -4 10 -10z m-162 -31 c-7 -4 -6 -9 1
-13 16 -10 14 -26 -3 -20 -14 5 -28 49 -19 58 3 3 11 -1 18 -7 8 -8 9 -14 3
-18z m982 6 c7 -8 11 -15 9 -16 -43 -8 -49 -7 -59 11 -9 17 -8 20 13 20 14 0
30 -7 37 -15z m-371 -11 c37 -18 31 -38 -10 -30 -15 3 -31 1 -34 -4 -8 -13
-35 -13 -35 0 0 6 9 10 20 10 13 0 20 7 20 20 0 24 -1 24 39 4z m-439 -4 c0
-5 -11 -10 -24 -10 -14 0 -28 5 -31 10 -4 6 7 10 24 10 17 0 31 -4 31 -10z
m373 3 c-7 -2 -19 -2 -25 0 -7 3 -2 5 12 5 14 0 19 -2 13 -5z m542 -3 c3 -5
-1 -10 -9 -10 -9 0 -16 5 -16 10 0 6 4 10 9 10 6 0 13 -4 16 -10z m-112 -39
c-4 -15 0 -18 20 -14 14 3 28 0 31 -6 5 -7 -4 -11 -23 -11 -32 0 -46 13 -37
35 8 22 15 18 9 -4z m107 9 c0 -5 -7 -10 -16 -10 -8 0 -12 5 -9 10 3 6 10 10
16 10 5 0 9 -4 9 -10z m33 -27 c-7 -2 -21 -2 -30 0 -10 3 -4 5 12 5 17 0 24
-2 18 -5z m34 -19 c-3 -3 -12 -4 -19 -1 -8 3 -5 6 6 6 11 1 17 -2 13 -5z m587
-249 c-4 -8 -10 -12 -15 -9 -14 8 -10 24 6 24 9 0 12 -6 9 -15z m238 -127 c-9
-9 -15 -9 -24 0 -9 9 -7 12 12 12 19 0 21 -3 12 -12z m-940 -70 c-16 -16 -15
-28 3 -28 8 0 15 7 15 16 0 9 5 12 12 8 7 -4 33 -7 57 -5 l46 3 -20 -21 c-10
-12 -25 -19 -32 -17 -7 3 -13 0 -13 -5 0 -7 9 -9 23 -5 57 17 94 17 132 0 22
-10 58 -17 80 -15 31 1 36 -1 23 -9 -18 -11 -14 -46 8 -54 23 -9 16 -25 -8
-18 -14 3 -19 2 -14 -6 4 -7 15 -12 24 -12 15 -1 15 -2 -2 -15 -28 -21 -11
-33 37 -25 37 5 46 3 56 -12 6 -10 11 -24 11 -32 0 -8 8 -17 18 -20 9 -3 35
-22 56 -42 21 -19 50 -40 63 -45 14 -5 27 -18 30 -29 3 -12 14 -20 27 -20 17
0 18 -2 6 -10 -13 -9 -13 -12 1 -23 20 -16 30 -43 35 -94 4 -38 2 -43 -16 -43
-22 0 -26 -10 -9 -27 9 -9 6 -23 -10 -55 -26 -55 -26 -70 -1 -88 11 -8 20 -22
20 -32 0 -10 4 -18 9 -18 5 0 14 -13 21 -30 15 -36 30 -39 30 -6 0 14 4 27 9
30 12 8 5 76 -8 89 -6 6 -11 21 -11 34 0 20 5 23 35 23 22 0 34 -4 32 -12 -1
-7 9 -14 22 -16 22 -4 23 -6 16 -70 -7 -73 -18 -93 -37 -74 -7 7 -15 12 -18
12 -10 0 -7 -45 3 -51 13 -9 -2 -31 -16 -23 -7 3 -2 -3 9 -13 l22 -19 -36 -25
c-20 -13 -40 -23 -45 -21 -20 6 -67 -10 -61 -20 4 -7 2 -8 -5 -4 -6 4 -24 1
-40 -7 -16 -8 -47 -13 -70 -12 -22 1 -41 -1 -41 -6 0 -5 -7 -6 -15 -3 -8 4
-15 1 -15 -6 0 -7 -7 -10 -15 -6 -9 3 -25 -4 -37 -16 -16 -16 -20 -17 -15 -5
10 26 -11 20 -44 -12 -30 -31 -37 -59 -18 -78 7 -7 8 -20 3 -34 -4 -13 -7 -28
-6 -33 2 -5 -6 -15 -18 -23 -11 -8 -18 -19 -15 -24 4 -5 -1 -12 -9 -15 -24 -9
-19 -43 7 -53 16 -6 23 -5 25 5 2 8 10 14 18 14 8 0 13 4 10 9 -7 11 18 21 52
21 26 -1 26 -1 -16 -38 -47 -41 -54 -67 -19 -76 35 -9 79 -7 72 4 -3 6 -22 10
-41 10 -19 0 -34 5 -34 10 0 6 5 10 10 10 6 0 10 7 10 15 0 8 5 15 11 15 6 0
22 9 36 20 39 30 60 26 67 -15 4 -19 12 -35 18 -35 6 0 8 -11 6 -25 -3 -14 -1
-25 3 -25 5 0 9 6 9 13 0 8 3 7 10 -3 5 -8 12 -12 15 -8 4 3 22 0 40 -8 19 -8
52 -14 74 -14 22 0 43 -4 46 -10 3 -5 18 -10 33 -10 19 0 23 -3 14 -9 -11 -7
-11 -9 2 -14 8 -3 16 -2 18 2 2 5 13 11 25 15 19 6 22 4 17 -11 -5 -14 -4 -15
4 -4 15 22 89 42 100 27 12 -16 32 -111 32 -155 0 -26 7 -44 21 -57 14 -12 19
-26 16 -44 -3 -13 -1 -33 4 -42 6 -12 6 -18 0 -18 -6 0 -8 -13 -4 -32 4 -21 3
-29 -5 -24 -6 3 -13 2 -17 -4 -3 -5 -1 -10 6 -10 8 0 8 -5 -2 -16 -11 -14 -11
-18 5 -29 17 -13 17 -14 -3 -25 -13 -7 -21 -21 -21 -38 0 -45 -11 -71 -31 -77
-14 -5 -18 -12 -14 -25 5 -16 -8 -48 -33 -80 -1 -2 -8 2 -13 10 -9 13 -10 13
-6 0 2 -8 0 -25 -4 -37 -6 -15 -4 -27 6 -37 19 -19 19 -26 0 -26 -13 0 -21
-25 -16 -52 0 -5 -3 -8 -8 -8 -6 0 -13 -20 -17 -45 -7 -52 -22 -59 -31 -15 -3
17 -11 29 -17 27 -14 -5 -28 10 -43 46 -7 15 -17 27 -22 27 -17 0 -29 -32 -22
-59 4 -14 6 -80 5 -146 -3 -97 -8 -136 -30 -205 -15 -47 -37 -94 -49 -106 -12
-11 -27 -34 -32 -50 -6 -20 -19 -32 -42 -39 -22 -7 -31 -14 -28 -26 3 -12 -2
-15 -23 -13 -18 2 -30 -2 -34 -11 -4 -11 2 -15 21 -15 25 0 25 -1 9 -19 -11
-13 -15 -27 -11 -40 3 -12 2 -21 -3 -21 -5 0 -12 -18 -16 -41 -5 -34 -12 -42
-41 -55 -19 -7 -39 -23 -45 -34 -6 -11 -20 -20 -31 -20 -11 0 -33 -7 -49 -15
-17 -9 -30 -11 -30 -6 0 5 3 11 8 14 4 2 0 2 -8 -1 -8 -3 -33 -6 -55 -7 -23
-1 -45 -4 -51 -7 -5 -4 -16 -3 -24 2 -8 5 -22 4 -34 -2 -16 -9 -253 -15 -276
-7 -3 1 -8 1 -12 0 -5 0 -8 3 -8 9 0 5 -7 10 -15 10 -8 0 -14 3 -14 8 4 23 -4
31 -28 29 -22 -2 -29 3 -31 21 -2 13 -9 21 -15 19 -18 -6 -47 12 -47 28 0 8
-4 15 -9 15 -5 0 -14 13 -21 29 -6 16 -18 32 -25 34 -8 3 -11 16 -8 31 3 15 1
26 -6 26 -6 0 -8 8 -4 17 6 16 5 16 -11 4 -13 -11 -16 -23 -12 -45 5 -25 4
-28 -6 -18 -13 13 -15 17 -17 52 0 10 -15 35 -31 53 -17 19 -30 44 -30 56 0
12 -12 33 -26 46 -19 17 -25 31 -21 46 3 12 2 29 -3 38 -35 67 -55 122 -55
156 0 22 -4 41 -9 43 -15 4 -35 -88 -26 -114 5 -12 6 -40 3 -64 -4 -30 -2 -45
8 -51 10 -7 7 -9 -11 -7 -14 1 -30 -1 -36 -5 -7 -4 -14 0 -18 8 -3 8 -12 15
-20 15 -7 0 -13 6 -13 12 1 24 -36 98 -50 98 -16 0 -17 17 -1 22 7 3 8 9 3 19
-5 8 -11 25 -12 39 -2 14 -7 43 -13 65 -5 23 -7 50 -4 62 4 12 -1 32 -10 45
-9 12 -16 27 -16 33 0 6 3 5 8 -2 4 -6 7 33 7 87 0 54 -3 96 -6 94 -8 -5 -19
32 -19 64 0 12 -4 22 -10 22 -31 0 -69 138 -78 286 -7 97 -6 101 13 96 19 -5
19 -5 2 13 -17 17 -18 29 -4 80 2 6 8 20 15 32 14 26 16 45 2 23 -7 -10 -10
-11 -10 -2 0 7 7 15 16 19 8 3 13 11 10 18 -7 19 19 86 37 97 9 5 14 15 11 22
-3 7 2 16 11 20 9 3 14 10 11 15 -7 11 22 23 35 15 16 -10 10 -24 -11 -24 -11
0 -20 -4 -20 -10 0 -5 5 -10 10 -10 6 0 10 -7 10 -15 0 -8 -8 -15 -17 -15 -14
0 -13 -4 6 -24 19 -20 30 -23 58 -19 27 5 38 2 45 -10 11 -21 48 -22 48 -2 0
12 13 15 55 15 56 0 74 13 32 24 -13 3 -33 14 -46 25 -19 16 -21 23 -11 40 6
12 24 28 41 37 17 8 28 11 24 4 -18 -29 37 -110 75 -110 13 0 13 -1 0 -10 -9
-6 -10 -10 -3 -10 7 0 17 9 23 21 9 16 14 18 25 9 11 -9 16 -7 25 10 6 11 8
25 5 30 -3 6 -1 10 4 10 6 0 11 7 11 15 0 8 5 15 10 15 6 0 10 7 10 15 0 22
12 19 62 -20 25 -19 49 -31 53 -27 4 4 2 -3 -4 -16 -17 -32 -3 -49 34 -41 l30
7 -32 1 c-38 1 -45 21 -8 21 24 0 24 1 7 21 -9 12 -30 34 -47 50 -22 21 -27
31 -18 40 17 17 70 -15 125 -75 40 -44 48 -48 54 -33 10 27 -21 86 -51 97 -16
6 -25 17 -25 30 0 17 -4 20 -20 15 -27 -9 -50 6 -24 16 15 6 13 8 -11 9 -16 0
-39 7 -50 16 -17 13 -18 16 -5 24 16 10 29 13 44 11 5 -1 5 11 2 26 -4 15 -7
34 -8 41 -1 8 -9 11 -20 9 -10 -3 -18 -1 -18 5 0 5 10 8 22 6 15 -2 24 -14 33
-43 10 -38 11 -39 19 -15 7 20 9 22 13 8 2 -10 8 -18 13 -18 4 0 6 10 2 22 -4
16 -2 19 9 14 8 -4 5 0 -6 9 -11 9 -19 18 -17 21 1 2 -4 11 -11 19 -11 11 -17
11 -27 2 -10 -10 -12 -8 -7 5 3 10 0 19 -10 22 -11 4 -14 2 -10 -9 8 -20 -9
-28 -34 -14 -12 6 -58 18 -103 25 -106 19 -105 19 -146 29 -19 5 -45 7 -57 6
-18 -2 -23 3 -24 21 0 13 -3 17 -6 11 -2 -7 -12 -13 -21 -13 -15 0 -15 2 -2
10 9 6 10 10 3 10 -6 0 -19 -7 -27 -16 -9 -8 -21 -12 -27 -8 -9 5 -7 11 5 19
14 11 15 13 1 19 -8 3 -15 16 -15 30 0 14 -4 27 -9 30 -4 3 -11 27 -15 54 -3
27 -15 66 -25 87 -21 44 -19 134 5 170 12 18 12 24 2 27 -11 4 -10 8 1 21 19
23 31 21 32 -5 0 -13 3 -17 6 -10 2 6 15 12 28 12 18 0 25 7 30 30 4 17 12 30
19 30 7 0 21 18 31 40 10 22 23 40 29 41 17 0 96 101 96 121 0 10 4 18 9 18 5
0 9 11 9 24 0 29 36 68 60 64 9 -2 16 3 14 10 -1 7 9 12 25 13 16 0 37 3 48 5
11 3 44 8 73 11 28 3 52 10 52 16 0 5 14 7 34 4 47 -8 71 0 86 29 16 29 30 31
30 4 0 -19 15 -28 22 -12 6 14 53 41 73 41 15 1 16 -2 7 -11z m1053 -78 c3 -5
1 -10 -4 -10 -6 0 -11 5 -11 10 0 6 2 10 4 10 3 0 8 -4 11 -10z m-232 -546 c8
-8 -3 -34 -14 -34 -5 0 -9 9 -9 20 0 19 11 26 23 14z m-125 -45 c-2 -6 -8 -10
-13 -10 -5 0 -11 4 -13 10 -2 6 4 11 13 11 9 0 15 -5 13 -11z m117 -189 c3 -5
1 -10 -4 -10 -6 0 -11 5 -11 10 0 6 2 10 4 10 3 0 8 -4 11 -10z m-1076 -179
c8 -14 7 -20 -4 -25 -8 -3 -15 -1 -15 3 0 5 -3 16 -6 25 -9 23 13 20 25 -3z
m-469 -61 c8 13 10 12 10 -2 0 -13 8 -18 28 -18 15 0 38 -3 51 -7 17 -4 22 -3
17 5 -4 7 -17 12 -28 12 -29 0 -20 6 22 14 25 4 31 3 20 -4 -11 -7 0 -10 40
-9 70 2 151 -11 144 -22 -3 -5 3 -9 13 -9 40 -1 -13 -18 -77 -25 -129 -13
-142 -15 -158 -24 -9 -4 -27 -7 -39 -6 -13 1 -21 -1 -18 -3 6 -6 -43 -32 -61
-32 -8 0 -14 -7 -14 -15 0 -17 -25 -21 -35 -5 -6 10 29 50 45 50 18 0 11 19
-7 19 -44 1 -50 5 -50 28 0 19 5 23 31 23 18 0 37 -5 44 -12 9 -9 15 -9 25 1
10 11 9 13 -1 7 -6 -4 -19 0 -28 8 -9 9 -20 14 -25 11 -5 -4 -9 -2 -9 4 0 14
34 19 43 6 4 -6 10 -5 17 5z m1507 -16 c-3 -3 -12 -4 -19 -1 -8 3 -5 6 6 6 11
1 17 -2 13 -5z m-31 -22 c-2 -4 12 -8 32 -9 26 -1 32 1 22 7 -13 9 -13 10 0
10 8 0 21 -9 27 -20 7 -11 26 -23 42 -27 l29 -8 -26 -19 c-14 -11 -22 -15 -19
-9 12 20 -33 31 -72 17 -11 -3 -10 -8 4 -24 22 -24 13 -39 -9 -17 -21 21 -165
35 -176 17 -8 -14 -70 -22 -70 -10 0 5 6 11 13 13 10 4 -72 3 -167 -3 -10 -1
-23 3 -29 9 -7 7 -2 8 13 4 12 -3 25 -1 29 6 5 7 31 14 59 16 36 3 59 11 77
27 22 21 35 23 125 25 55 0 98 -2 96 -5z m-1179 -56 c8 -8 -85 -18 -96 -11 -6
3 -11 11 -11 16 0 10 97 5 107 -5z m-147 -6 c0 -5 -4 -10 -10 -10 -5 0 -10 5
-10 10 0 6 5 10 10 10 6 0 10 -4 10 -10z m238 -16 c-9 -9 -21 -13 -27 -10 -20
13 -11 26 16 26 25 0 26 -1 11 -16z m1162 -4 c0 -5 -2 -10 -4 -10 -3 0 -8 5
-11 10 -3 6 -1 10 4 10 6 0 11 -4 11 -10z m-330 -15 c0 -15 -48 -40 -58 -31
-8 9 27 38 38 31 5 -3 10 -1 10 4 0 6 2 11 5 11 3 0 5 -7 5 -15z m30 5 c0 -5
-5 -10 -11 -10 -5 0 -7 5 -4 10 3 6 8 10 11 10 2 0 4 -4 4 -10z m-1000 -50 c0
-5 -4 -10 -10 -10 -5 0 -10 5 -10 10 0 6 5 10 10 10 6 0 10 -4 10 -10z m1199
-30 c17 -16 31 -33 31 -39 0 -29 -119 -76 -134 -53 -3 5 6 19 20 31 21 18 25
30 22 60 -4 45 12 46 61 1z m-222 -2 c-3 -8 -6 -5 -6 6 -1 11 2 17 5 13 3 -3
4 -12 1 -19z m68 2 c3 -5 1 -10 -4 -10 -6 0 -11 5 -11 10 0 6 2 10 4 10 3 0 8
-4 11 -10z m814 -151 c37 -19 40 -24 47 -76 13 -106 -18 -256 -62 -300 -16
-17 -17 -16 -10 12 4 17 9 51 13 78 3 26 10 50 14 53 5 3 9 15 8 27 0 18 -4
15 -16 -13 -14 -31 -16 -33 -23 -15 -22 54 -46 205 -41 248 2 13 29 8 70 -14z
m-114 -79 c3 -5 1 -10 -4 -10 -6 0 -11 5 -11 10 0 6 2 10 4 10 3 0 8 -4 11
-10z m-11 -85 c10 -14 25 -25 32 -25 38 0 60 -210 22 -216 -10 -1 -20 2 -23 6
-6 10 -25 6 -62 -13 -13 -6 -25 -8 -27 -6 -8 9 -11 219 -3 219 5 0 7 13 4 29
-10 47 24 50 57 6z m-93 -124 c11 -50 -3 -123 -31 -159 -24 -30 -28 -71 -5
-52 8 6 19 9 25 5 5 -3 10 0 10 8 0 17 30 32 40 20 12 -14 30 -75 30 -104 0
-15 5 -29 11 -31 9 -3 8 -14 -1 -40 -12 -34 -15 -35 -44 -27 -32 9 -53 -1 -41
-21 5 -8 10 -9 18 -1 14 14 27 14 27 1 0 -5 -7 -10 -15 -10 -8 0 -15 -4 -15
-10 0 -16 -102 3 -128 23 -18 14 -5 65 25 95 21 20 23 30 18 67 -5 32 -2 52
14 83 15 30 21 60 21 107 0 39 5 71 13 79 15 18 17 16 28 -33z m129 -161 c-19
-12 -40 -13 -40 -1 0 9 40 20 50 13 2 -2 -2 -7 -10 -12z m40 -35 c0 -8 -4 -15
-10 -15 -5 0 -10 -9 -10 -20 0 -11 -4 -20 -10 -20 -5 0 -10 -7 -10 -15 0 -17
-2 -18 -24 -9 -25 10 -19 40 15 68 35 30 49 33 49 11z m-2130 -671 c0 -8 -4
-12 -10 -9 -5 3 -10 13 -10 21 0 8 5 12 10 9 6 -3 10 -13 10 -21z m227 -146
c-3 -8 -6 -5 -6 6 -1 11 2 17 5 13 3 -3 4 -12 1 -19z m268 -438 c3 -5 1 -10
-4 -10 -6 0 -11 5 -11 10 0 6 2 10 4 10 3 0 8 -4 11 -10z m-28 -106 c-3 -3
-12 -4 -19 -1 -8 3 -5 6 6 6 11 1 17 -2 13 -5z m-647 -270 c1 43 16 2 19 -52
1 -7 5 -11 9 -8 5 3 8 -33 8 -80 -1 -79 -2 -84 -21 -82 -13 2 -19 9 -17 21 2
9 -2 17 -9 17 -6 0 -9 8 -6 20 3 13 0 20 -10 20 -10 0 -13 6 -9 16 3 9 6 20 6
25 0 6 5 7 11 3 7 -4 10 -1 7 7 -3 8 -12 14 -20 13 -7 -1 -15 7 -15 17 -1 12
3 16 14 12 11 -4 14 -2 9 5 -4 7 -15 12 -24 12 -15 0 -15 2 -2 11 11 7 12 12
3 15 -8 4 -7 11 5 25 17 20 17 19 29 -8 9 -21 12 -23 13 -9z m1882 -106 c-8
-8 -9 -4 -5 13 4 13 8 18 11 10 2 -7 -1 -18 -6 -23z m-92 -12 c0 -3 -4 -8 -10
-11 -5 -3 -10 -1 -10 4 0 6 5 11 10 11 6 0 10 -2 10 -4z m95 -25 c-3 -6 -11
-11 -16 -11 -5 0 -4 6 3 14 14 16 24 13 13 -3z m-100 -21 c3 -6 -1 -7 -9 -4
-18 7 -21 14 -7 14 6 0 13 -4 16 -10z m-25 -15 c5 3 12 0 15 -6 5 -7 1 -10
-10 -7 -10 1 -20 9 -21 16 -1 7 0 8 3 2 2 -5 9 -8 13 -5z m-1720 -63 c0 -5 -7
-9 -15 -9 -8 0 -15 4 -15 9 0 4 7 8 15 8 8 0 15 -4 15 -8z m1784 -27 c3 -9 0
-15 -9 -15 -9 0 -12 6 -9 15 4 8 7 15 9 15 2 0 5 -7 9 -15z"/>
<path d="M1490 3450 c0 -5 7 -10 15 -10 8 0 15 5 15 10 0 6 -7 10 -15 10 -8 0
-15 -4 -15 -10z"/>
<path d="M1550 3066 c0 -9 5 -16 10 -16 6 0 10 4 10 9 0 6 -4 13 -10 16 -5 3
-10 -1 -10 -9z"/>
<path d="M2945 3051 c-3 -5 -1 -12 5 -16 5 -3 10 1 10 9 0 18 -6 21 -15 7z"/>
<path d="M2610 2949 c0 -5 5 -7 10 -4 6 3 10 8 10 11 0 2 -4 4 -10 4 -5 0 -10
-5 -10 -11z"/>
<path d="M2042 2885 c0 -16 2 -22 5 -12 2 9 2 23 0 30 -3 6 -5 -1 -5 -18z"/>
<path d="M1890 2846 c0 -2 7 -6 15 -10 8 -3 15 -1 15 4 0 6 -7 10 -15 10 -8 0
-15 -2 -15 -4z"/>
<path d="M2515 2829 c-10 -15 3 -25 16 -12 7 7 7 13 1 17 -6 3 -14 1 -17 -5z"/>
<path d="M2386 2616 c-4 -15 -4 -31 -1 -36 3 -5 7 -26 10 -47 18 -173 27 -219
45 -238 11 -12 20 -29 20 -39 0 -9 5 -27 12 -39 19 -34 47 -120 48 -144 0 -12
-14 -35 -30 -52 -37 -36 -90 -75 -90 -65 0 3 -7 0 -17 -7 -12 -10 -17 -11 -20
-2 -3 8 -21 10 -57 6 -57 -6 -95 9 -142 55 -23 22 -72 27 -101 9 -6 -4 -13 -1
-16 5 -6 21 4 48 19 48 8 0 14 7 14 16 0 8 14 29 31 46 32 33 95 155 85 165
-11 12 -61 -33 -78 -70 -10 -19 -27 -38 -38 -42 -11 -3 -20 -11 -20 -16 0 -5
-6 -9 -13 -9 -23 0 -57 -84 -50 -124 3 -20 9 -36 12 -36 4 0 24 -16 44 -35 41
-39 47 -42 47 -20 0 8 -4 15 -10 15 -14 0 -1 27 16 34 18 7 64 -10 78 -29 23
-29 94 -56 154 -58 33 -1 59 -6 59 -12 -3 -14 44 -16 73 -2 14 6 44 26 67 44
59 47 62 76 24 188 -17 48 -31 105 -31 126 0 21 -4 41 -10 44 -5 3 -10 15 -10
25 0 10 -6 25 -12 32 -7 7 -14 31 -16 53 -2 22 -8 45 -14 52 -5 7 -7 17 -3 23
4 6 2 17 -4 24 -6 7 -9 20 -6 28 3 8 -3 23 -15 33 -11 10 -20 23 -20 30 0 6
-6 19 -14 30 -12 17 -13 17 -20 -9z"/>
<path d="M1867 2609 c13 -12 31 -15 30 -4 -1 5 -10 10 -20 10 -10 1 -14 -2
-10 -6z"/>
<path d="M2480 2567 c0 -9 6 -18 13 -20 9 -4 8 -8 -3 -16 -12 -8 -8 -11 18
-11 17 0 32 1 32 3 0 1 -13 15 -30 30 -21 20 -30 24 -30 14z"/>
<path d="M1842 1779 c2 -6 8 -10 13 -10 5 0 11 4 13 10 2 6 -4 11 -13 11 -9 0
-15 -5 -13 -11z"/>
<path d="M1495 1680 c3 -5 11 -10 16 -10 6 0 7 5 4 10 -3 6 -11 10 -16 10 -6
0 -7 -4 -4 -10z"/>
<path d="M2066 1658 c-17 -10 -49 -15 -136 -22 -19 -2 -39 -4 -45 -6 -5 -2
-14 -4 -20 -5 -23 -3 -55 -17 -55 -23 1 -11 53 -58 73 -65 10 -4 16 -11 13
-16 -9 -15 40 -48 81 -56 33 -6 40 -3 58 19 19 24 54 38 40 16 -3 -5 -1 -10 4
-10 6 0 11 5 11 11 0 6 9 9 20 6 11 -3 20 -1 20 4 0 5 -19 10 -42 11 -99 3
-207 38 -201 64 3 15 164 44 216 39 32 -3 47 -1 47 7 0 9 3 9 12 0 21 -21 32
-13 12 9 -13 14 -25 18 -42 14 -13 -3 -29 -2 -36 4 -7 6 -18 6 -30 -1z"/>
<path d="M2210 1640 c0 -21 5 -30 16 -30 9 0 13 5 9 13 -4 6 1 3 9 -7 9 -11
16 -15 16 -9 0 8 8 8 29 0 30 -11 66 -3 56 13 -3 5 -14 10 -23 10 -9 1 -35 9
-57 20 -53 25 -55 25 -55 -10z"/>
<path d="M1502 1641 c2 -7 7 -12 11 -12 12 1 9 15 -3 20 -7 2 -11 -2 -8 -8z"/>
<path d="M2507 1614 c-4 -4 -28 -7 -54 -6 l-48 2 44 -20 c24 -11 51 -20 61
-20 25 0 50 -10 50 -21 0 -5 -24 -9 -52 -8 -29 0 -89 -7 -133 -15 -44 -9 -109
-17 -145 -17 -36 -1 -54 -4 -41 -6 17 -4 21 -7 11 -13 -7 -5 19 -8 63 -9 47 0
79 4 83 11 5 8 2 9 -9 5 -10 -3 -17 -2 -17 3 0 6 9 10 20 10 11 0 20 -4 20 -9
0 -4 14 -7 32 -5 42 5 71 -4 64 -21 -7 -19 33 -26 88 -16 25 4 47 7 49 5 8 -9
79 65 73 75 -4 7 1 11 13 11 12 0 21 7 21 15 0 19 -37 38 -61 32 -11 -3 -19 0
-19 6 0 8 -4 7 -9 -2 -6 -9 -11 -10 -15 -2 -4 6 -17 10 -29 9 -12 0 -29 2 -38
6 -8 4 -18 4 -22 0z"/>
<path d="M1540 1585 c0 -16 6 -25 15 -25 16 0 19 9 9 34 -9 25 -24 19 -24 -9z"/>
<path d="M2378 1603 c7 -3 16 -2 19 1 4 3 -2 6 -13 5 -11 0 -14 -3 -6 -6z"/>
<path d="M1880 940 c0 -5 5 -10 11 -10 5 0 7 5 4 10 -3 6 -8 10 -11 10 -2 0
-4 -4 -4 -10z"/>
<path d="M1230 340 c0 -5 5 -10 10 -10 6 0 10 5 10 10 0 6 -4 10 -10 10 -5 0
-10 -4 -10 -10z"/>
<path d="M1246 295 c4 -8 8 -15 10 -15 2 0 4 7 4 15 0 8 -4 15 -10 15 -5 0 -7
-7 -4 -15z"/>
<path d="M2136 4585 c7 -16 24 -21 24 -6 0 5 8 12 18 14 9 3 3 5 -15 6 -25 1
-31 -2 -27 -14z"/>
<path d="M2760 4574 c0 -14 4 -23 10 -19 6 3 10 15 10 26 0 10 -4 19 -10 19
-5 0 -10 -12 -10 -26z"/>
<path d="M2790 4575 c0 -14 8 -29 21 -35 20 -11 20 -12 3 -31 -10 -11 -23 -18
-30 -15 -18 7 -51 -20 -39 -33 16 -15 66 -1 75 23 8 18 9 17 9 -11 1 -18 4
-33 9 -34 4 0 30 -2 59 -3 47 -3 51 -1 42 15 -14 26 -26 31 -49 19 -16 -8 -20
-8 -20 4 0 8 -6 21 -12 28 -7 7 -14 28 -14 46 -2 25 2 32 17 32 10 0 19 -4 19
-9 0 -5 9 -7 21 -4 16 5 20 2 17 -13 -2 -13 4 -20 20 -22 12 -2 22 2 22 7 0 7
10 9 25 5 27 -7 35 10 10 20 -8 3 -15 12 -15 21 0 12 -16 15 -95 15 -94 0 -95
0 -95 -25z"/>
<path d="M3013 4575 c31 -28 32 -54 2 -72 -20 -12 -19 -12 3 -13 12 0 22 5 22
11 0 6 6 9 14 6 8 -3 20 1 27 10 11 13 9 19 -14 37 -32 26 -35 40 -6 31 27 -9
55 -37 64 -64 6 -21 35 -30 35 -11 0 6 -8 10 -17 10 -12 0 -14 3 -6 11 13 13
47 8 49 -6 1 -6 5 -21 10 -35 l8 -25 6 25 c4 14 2 31 -3 38 -7 9 -2 12 22 12
17 0 31 5 31 11 0 6 8 8 19 4 13 -4 23 0 29 12 8 14 13 15 25 5 8 -7 21 -11
28 -10 7 2 15 -5 17 -15 4 -21 37 -57 52 -57 6 0 10 7 10 15 0 8 -9 15 -20 15
-28 0 -25 20 3 22 12 0 29 1 37 2 8 1 15 8 15 16 0 8 -8 14 -17 14 -11 -1 -18
5 -18 15 -1 14 -2 14 -11 -1 -12 -22 -29 -23 -29 -3 0 12 -13 15 -61 15 -45 0
-58 -3 -53 -12 6 -10 4 -10 -7 0 -15 14 -59 16 -59 3 0 -5 6 -11 13 -14 6 -2
2 -2 -10 -1 -12 2 -23 -2 -26 -9 -3 -8 -10 -6 -21 8 -15 19 -17 19 -30 3 -17
-23 -26 -23 -26 2 0 18 -7 20 -67 20 l-68 -1 28 -24z m54 -51 c-3 -3 -12 -4
-19 -1 -8 3 -5 6 6 6 11 1 17 -2 13 -5z"/>
<path d="M3490 4559 c0 -32 -3 -40 -15 -36 -17 7 -29 -8 -20 -24 5 -7 13 -5
24 5 11 10 21 12 31 6 18 -11 31 -4 24 14 -3 7 2 18 10 25 12 10 18 8 31 -13
27 -41 45 -33 45 19 l0 45 -65 0 -65 0 0 -41z"/>
<path d="M3650 4584 c0 -10 6 -14 14 -11 10 4 16 -2 19 -16 3 -18 5 -16 7 8 2
23 5 19 10 -20 6 -41 8 -46 15 -27 l7 22 18 -20 c13 -15 19 -17 23 -8 3 7 6
-6 6 -29 1 -32 5 -43 20 -48 24 -7 73 4 66 15 -3 5 -1 11 5 15 12 7 4 25 -11
25 -5 0 -9 -9 -9 -20 0 -11 -4 -20 -10 -20 -5 0 -10 16 -10 35 0 23 5 35 13
34 25 -3 38 1 32 11 -3 6 -1 10 4 10 6 0 11 -9 11 -20 0 -11 7 -20 16 -20 8 0
12 5 9 10 -3 6 -1 10 5 10 6 0 8 5 5 10 -3 6 -1 10 4 10 6 0 11 -5 11 -12 0
-9 3 -9 13 1 10 10 8 15 -6 25 -10 8 -15 20 -11 30 5 14 -5 16 -94 15 -101 -2
-101 -2 -105 -28 l-4 -26 -2 28 c-1 24 -5 27 -36 27 -25 0 -35 -4 -35 -16z
m212 -16 c-6 -6 -15 -8 -19 -4 -4 4 -1 11 7 16 19 12 27 3 12 -12z m-72 -28
c12 -8 11 -10 -7 -10 -13 0 -23 5 -23 10 0 13 11 13 30 0z m50 0 c0 -5 -5 -10
-11 -10 -5 0 -7 5 -4 10 3 6 8 10 11 10 2 0 4 -4 4 -10z m-40 -57 c0 -20 -3
-33 -7 -29 -9 9 -14 38 -8 54 8 23 15 12 15 -25z"/>
<path d="M3970 4560 c0 -22 4 -40 10 -40 5 0 9 18 8 40 -1 22 -5 40 -10 40 -4
0 -8 -18 -8 -40z"/>
<path d="M4034 4583 c0 -10 -6 -18 -14 -18 -8 0 -15 -7 -15 -15 0 -9 7 -14 18
-12 9 2 17 -3 17 -10 0 -9 3 -9 10 2 15 23 12 70 -4 70 -8 0 -13 -8 -12 -17z"/>
<path d="M4070 4558 c0 -35 2 -39 15 -28 12 10 18 10 30 0 18 -15 30 -6 38 25
3 11 5 -1 6 -27 1 -43 4 -48 24 -48 12 0 29 -4 37 -10 12 -8 12 -10 -3 -16
-16 -6 -16 -8 3 -24 26 -22 26 -40 0 -40 -11 0 -20 -4 -20 -10 0 -5 18 -10 40
-10 22 0 40 5 40 10 0 6 -7 10 -16 10 -10 0 -14 6 -11 15 4 8 2 17 -2 19 -10
7 -2 56 10 56 4 0 13 -16 20 -35 11 -30 16 -34 41 -30 21 4 28 1 28 -10 0 -8
5 -15 10 -15 6 0 10 11 10 24 0 13 6 26 12 28 8 3 12 23 11 54 0 27 1 41 4 32
2 -10 8 -18 13 -18 5 0 7 7 4 15 -4 8 -1 15 5 15 6 0 11 -4 11 -10 0 -14 37
-12 43 3 3 6 6 -8 6 -32 1 -42 0 -43 -17 -28 -16 15 -21 15 -38 3 -18 -14 -18
-15 9 -25 64 -24 77 -24 103 2 16 16 21 28 14 32 -8 5 -5 11 7 21 17 13 17 13
-4 14 -13 0 -23 -6 -23 -14 0 -7 -8 -20 -17 -27 -10 -7 -15 -10 -11 -5 4 5 3
16 -2 25 -11 21 3 46 20 36 7 -4 16 -2 20 5 7 11 12 10 25 -3 26 -26 35 -20
35 23 0 38 -2 40 -31 40 -18 0 -28 -4 -24 -10 7 -12 -22 -26 -33 -16 -3 4 0
11 8 16 10 7 -3 10 -43 10 -32 0 -56 -4 -53 -9 10 -16 -38 -21 -54 -6 -12 11
-38 13 -107 11 -51 -2 -97 -7 -102 -11 -6 -3 -11 -2 -11 4 0 5 -18 9 -40 9
-40 0 -40 0 -40 -40z m403 25 c-7 -2 -19 -2 -25 0 -7 3 -2 5 12 5 14 0 19 -2
13 -5z m-258 -38 c-3 -19 1 -25 16 -25 10 0 19 -4 19 -9 0 -14 -52 -23 -63
-12 -8 8 -7 11 3 11 9 0 8 5 -6 15 -12 9 -14 14 -5 15 7 0 11 6 7 15 -3 10 1
15 13 15 14 0 18 -6 16 -25z m110 14 c11 -17 -1 -21 -15 -4 -8 9 -8 15 -2 15
6 0 14 -5 17 -11z m95 1 c0 -5 -5 -10 -11 -10 -5 0 -7 5 -4 10 3 6 8 10 11 10
2 0 4 -4 4 -10z m-40 -10 c0 -5 -4 -10 -9 -10 -6 0 -13 5 -16 10 -3 6 1 10 9
10 9 0 16 -4 16 -10z m80 -5 c0 -8 -4 -15 -10 -15 -5 0 -7 7 -4 15 4 8 8 15
10 15 2 0 4 -7 4 -15z m-153 -11 c-3 -3 -12 -4 -19 -1 -8 3 -5 6 6 6 11 1 17
-2 13 -5z m63 -49 c0 -25 -4 -45 -10 -45 -5 0 -10 20 -10 45 0 25 5 45 10 45
6 0 10 -20 10 -45z m-80 19 c0 -17 -22 -14 -28 4 -2 7 3 12 12 12 9 0 16 -7
16 -16z m30 -34 c-18 -11 -22 -7 -14 14 5 13 10 14 18 6 8 -8 7 -13 -4 -20z"/>
<path d="M3647 4530 c-3 -10 1 -24 8 -30 9 -8 14 -6 17 7 6 21 0 43 -12 43 -4
0 -10 -9 -13 -20z"/>
<path d="M3285 4530 c-17 -7 -14 -9 13 -9 20 -1 31 3 27 9 -7 12 -13 12 -40 0z"/>
<path d="M2940 4511 c0 -6 5 -13 10 -16 6 -3 10 1 10 9 0 9 -4 16 -10 16 -5 0
-10 -4 -10 -9z"/>
<path d="M3343 4496 c4 -11 -4 -16 -31 -19 l-37 -4 43 -1 c36 -2 42 1 42 18 0
11 -5 20 -11 20 -6 0 -9 -6 -6 -14z"/>
<path d="M4128 4503 c-9 -21 -2 -58 12 -58 8 0 15 6 14 13 -1 6 -2 21 -2 32
-2 19 -17 28 -24 13z"/>
<path d="M30 4490 c0 -5 5 -10 10 -10 6 0 10 5 10 10 0 6 -4 10 -10 10 -5 0
-10 -4 -10 -10z"/>
<path d="M2516 4491 c-4 -5 -2 -12 3 -15 5 -4 12 -2 15 3 4 5 2 12 -3 15 -5 4
-12 2 -15 -3z"/>
<path d="M3940 4490 c0 -5 5 -10 10 -10 6 0 10 5 10 10 0 6 -4 10 -10 10 -5 0
-10 -4 -10 -10z"/>
<path d="M4020 4480 c0 -13 5 -20 13 -17 6 2 12 10 12 17 0 7 -6 15 -12 18 -8
2 -13 -5 -13 -18z"/>
<path d="M4073 4468 c2 -21 -1 -38 -5 -38 -4 0 -8 -5 -8 -11 0 -6 6 -9 13 -6
6 2 11 12 11 21 -1 9 5 16 13 16 8 0 13 5 11 11 -2 6 -8 10 -13 9 -5 -1 -13 7
-17 17 -5 12 -7 6 -5 -19z"/>
<path d="M939 4488 c-14 -42 4 -58 41 -38 20 11 19 13 20 -57 0 -13 5 -23 10
-23 6 0 10 8 10 18 0 24 19 42 45 42 16 0 17 2 5 10 -11 7 -7 10 19 10 25 0
32 -3 27 -15 -4 -11 1 -15 19 -15 33 0 40 17 10 24 -14 4 -25 10 -25 14 0 5
-36 7 -80 6 -63 -2 -80 1 -80 12 0 11 -18 21 -21 12z"/>
<path d="M2570 4480 c-11 -7 -12 -12 -4 -20 8 -8 14 -7 23 4 14 17 1 28 -19
16z"/>
<path d="M2625 4480 c-3 -5 -1 -10 4 -10 6 0 11 5 11 10 0 6 -2 10 -4 10 -3 0
-8 -4 -11 -10z"/>
<path d="M3132 4481 c-10 -6 -7 -10 13 -15 16 -4 32 -3 38 3 8 8 8 11 0 11 -6
0 -17 2 -25 5 -7 3 -19 1 -26 -4z"/>
<path d="M3250 4480 c0 -5 5 -10 11 -10 5 0 7 5 4 10 -3 6 -8 10 -11 10 -2 0
-4 -4 -4 -10z"/>
<path d="M1420 4473 c1 -25 30 -43 66 -42 l39 2 -35 6 c-22 4 -35 12 -35 21 0
8 -8 16 -17 18 -10 2 -18 0 -18 -5z"/>
<path d="M4580 4461 c0 -11 -6 -22 -12 -24 -7 -3 -4 -6 7 -7 l20 -1 -20 -15
-20 -16 20 4 c15 2 21 12 23 41 2 21 -1 37 -7 37 -6 0 -11 -9 -11 -19z"/>
<path d="M1660 4457 c0 -9 -8 -17 -17 -17 -21 0 -50 -17 -42 -24 11 -11 77 15
75 29 -3 22 -16 31 -16 12z"/>
<path d="M2400 4460 c0 -5 15 -12 34 -16 19 -3 37 -12 40 -20 3 -8 10 -14 16
-14 6 0 9 4 5 9 -3 5 3 11 12 13 10 3 -1 8 -24 12 -24 4 -43 12 -43 17 0 5 -9
9 -20 9 -11 0 -20 -4 -20 -10z"/>
<path d="M2978 4463 c7 -3 16 -2 19 1 4 3 -2 6 -13 5 -11 0 -14 -3 -6 -6z"/>
<path d="M3617 4455 c-4 -10 -19 -15 -43 -15 -47 0 -41 -5 14 -14 31 -5 41 -3
36 5 -4 8 3 9 25 4 20 -4 31 -3 31 5 0 6 -5 8 -11 5 -5 -4 -18 0 -28 9 -17 15
-19 15 -24 1z"/>
<path d="M3898 4450 l22 -19 -22 -4 c-22 -3 -22 -4 -3 -12 11 -5 23 -13 27
-19 9 -13 11 36 2 58 -3 9 -16 16 -28 16 l-21 -1 23 -19z"/>
<path d="M0 4446 c0 -17 16 -30 23 -19 3 5 -1 14 -9 21 -12 10 -14 10 -14 -2z"/>
<path d="M300 4445 c0 -9 5 -15 11 -13 6 2 11 8 11 13 0 5 -5 11 -11 13 -6 2
-11 -4 -11 -13z"/>
<path d="M560 4450 c0 -5 7 -10 16 -10 8 0 12 5 9 10 -3 6 -10 10 -16 10 -5 0
-9 -4 -9 -10z"/>
<path d="M615 4450 c-4 -6 5 -10 20 -10 15 0 24 4 20 10 -3 6 -12 10 -20 10
-8 0 -17 -4 -20 -10z"/>
<path d="M3700 4450 c0 -5 5 -10 11 -10 5 0 7 5 4 10 -3 6 -8 10 -11 10 -2 0
-4 -4 -4 -10z"/>
<path d="M3258 4443 c7 -3 16 -2 19 1 4 3 -2 6 -13 5 -11 0 -14 -3 -6 -6z"/>
<path d="M528 4433 c7 -3 16 -2 19 1 4 3 -2 6 -13 5 -11 0 -14 -3 -6 -6z"/>
<path d="M847 4420 c-4 -15 0 -20 14 -20 22 0 25 13 5 29 -11 9 -15 7 -19 -9z"/>
<path d="M1410 4425 c0 -8 2 -15 4 -15 2 0 6 7 10 15 3 8 1 15 -4 15 -6 0 -10
-7 -10 -15z"/>
<path d="M3468 4415 c-4 -17 -1 -25 8 -25 8 0 14 11 14 25 0 14 -4 25 -9 25
-5 0 -11 -11 -13 -25z"/>
<path d="M562 4410 c0 -14 2 -19 5 -12 2 6 2 18 0 25 -3 6 -5 1 -5 -13z"/>
<path d="M4121 4416 c-9 -11 -6 -15 15 -20 31 -8 37 -5 28 18 -8 20 -28 21
-43 2z"/>
<path d="M4425 4420 c-3 -5 3 -10 15 -10 12 0 18 5 15 10 -3 6 -10 10 -15 10
-5 0 -12 -4 -15 -10z"/>
<path d="M177 4402 c-25 -27 -21 -31 21 -25 47 7 50 10 26 28 -25 19 -28 18
-47 -3z"/>
<path d="M1840 4410 c0 -5 9 -10 21 -10 11 0 17 5 14 10 -3 6 -13 10 -21 10
-8 0 -14 -4 -14 -10z"/>
<path d="M3736 4411 c-3 -5 1 -11 9 -15 9 -3 15 0 15 9 0 16 -16 20 -24 6z"/>
<path d="M3955 4411 c-3 -5 -2 -16 1 -24 4 -12 -1 -16 -25 -15 -17 1 -34 -2
-38 -5 -3 -4 8 -7 26 -7 18 0 42 -5 53 -11 14 -8 23 -8 31 0 8 8 5 11 -11 11
-29 0 -29 26 0 33 12 4 19 10 15 14 -12 11 -45 14 -52 4z"/>
<path d="M4480 4405 c0 -10 7 -15 18 -13 21 4 19 22 -2 26 -10 2 -16 -3 -16
-13z"/>
<path d="M15 4400 c3 -5 8 -10 11 -10 2 0 4 5 4 10 0 6 -5 10 -11 10 -5 0 -7
-4 -4 -10z"/>
<path d="M80 4392 c0 -10 -10 -23 -21 -28 -19 -9 -17 -10 15 -11 34 -1 37 1
34 25 -4 30 -28 43 -28 14z"/>
<path d="M127 4384 c-3 -16 0 -28 10 -31 19 -8 22 -2 16 30 -7 34 -19 35 -26
1z"/>
<path d="M250 4400 c0 -5 5 -10 10 -10 6 0 10 5 10 10 0 6 -4 10 -10 10 -5 0
-10 -4 -10 -10z"/>
<path d="M480 4400 c-8 -5 -23 -7 -32 -4 -14 4 -17 0 -16 -20 2 -19 8 -26 24
-26 12 0 29 -3 38 -6 9 -3 16 -1 16 5 0 6 -14 11 -31 11 -18 0 -28 4 -24 10 4
6 10 8 15 5 5 -3 11 -1 15 5 3 5 17 7 31 4 26 -7 34 10 8 20 -21 8 -26 7 -44
-4z"/>
<path d="M712 4389 c-17 -26 -15 -31 10 -27 26 3 36 33 15 41 -7 3 -19 -3 -25
-14z"/>
<path d="M1112 4395 c-11 -13 -9 -15 14 -15 22 0 25 2 14 15 -15 18 -12 18
-28 0z"/>
<path d="M1740 4400 c0 -13 30 -13 50 0 11 7 7 10 -17 10 -18 0 -33 -4 -33
-10z"/>
<path d="M3340 4404 c0 -13 30 -34 47 -33 15 0 14 2 -4 11 -13 6 -23 15 -23
20 0 4 -4 8 -10 8 -5 0 -10 -3 -10 -6z"/>
<path d="M3410 4406 c0 -2 7 -6 15 -10 8 -3 15 -1 15 4 0 6 -7 10 -15 10 -8 0
-15 -2 -15 -4z"/>
<path d="M3618 4396 c-26 -19 -22 -27 10 -20 54 12 58 14 42 24 -20 13 -32 12
-52 -4z"/>
<path d="M401 4388 c0 -10 -9 -18 -18 -18 -13 0 -14 -3 -5 -12 16 -16 36 3 29
28 -4 17 -5 17 -6 2z"/>
<path d="M1050 4390 c19 -13 30 -13 30 0 0 6 -10 10 -22 10 -19 0 -20 -2 -8
-10z"/>
<path d="M1335 4390 c3 -5 10 -10 16 -10 5 0 9 5 9 10 0 6 -7 10 -16 10 -8 0
-12 -4 -9 -10z"/>
<path d="M3538 4393 c7 -3 16 -2 19 1 4 3 -2 6 -13 5 -11 0 -14 -3 -6 -6z"/>
<path d="M3795 4390 c-3 -5 3 -10 15 -10 12 0 18 5 15 10 -3 6 -10 10 -15 10
-5 0 -12 -4 -15 -10z"/>
<path d="M953 4383 c-18 -7 -16 -23 2 -23 8 0 15 7 15 15 0 8 -1 15 -2 14 -2
0 -9 -3 -15 -6z"/>
<path d="M2850 4380 c0 -5 10 -10 23 -10 18 0 19 2 7 10 -19 13 -30 13 -30 0z"/>
<path d="M3128 4383 c7 -3 16 -2 19 1 4 3 -2 6 -13 5 -11 0 -14 -3 -6 -6z"/>
<path d="M4045 4379 c-4 -6 -5 -13 -2 -16 7 -7 27 6 27 18 0 12 -17 12 -25 -2z"/>
<path d="M1244 4364 c-18 -14 -18 -15 4 -4 12 6 28 8 34 4 7 -4 8 -3 4 4 -10
16 -18 15 -42 -4z"/>
<path d="M1436 4372 c-2 -4 12 -6 32 -4 56 5 62 10 15 11 -23 1 -44 -3 -47 -7z"/>
<path d="M4305 4370 c-4 -6 7 -10 26 -10 18 0 40 -7 49 -15 15 -14 18 -14 30
1 12 13 11 17 0 24 -8 5 -19 5 -26 0 -6 -6 -13 -8 -15 -6 -12 10 -59 15 -64 6z"/>
<path d="M4568 4373 c7 -3 16 -2 19 1 4 3 -2 6 -13 5 -11 0 -14 -3 -6 -6z"/>
<path d="M177 4363 c-4 -3 1 -12 11 -19 22 -17 38 -18 23 -1 -6 8 -8 17 -4 20
3 4 0 7 -9 7 -8 0 -18 -3 -21 -7z"/>
<path d="M1634 4359 c-7 -12 22 -23 36 -14 5 3 10 1 10 -6 0 -10 3 -10 12 -1
7 7 22 12 34 12 13 0 25 3 27 8 3 4 -22 8 -54 8 -33 1 -62 -2 -65 -7z"/>
<path d="M3738 4363 c7 -3 16 -2 19 1 4 3 -2 6 -13 5 -11 0 -14 -3 -6 -6z"/>
<path d="M241 4344 c0 -11 3 -14 6 -6 3 7 2 16 -1 19 -3 4 -6 -2 -5 -13z"/>
<path d="M1195 4347 c-4 -10 -5 -21 -1 -24 10 -10 18 4 13 24 -4 17 -4 17 -12
0z"/>
<path d="M3380 4350 c0 -5 15 -10 33 -9 27 0 29 2 12 9 -28 12 -45 12 -45 0z"/>
<path d="M3827 4346 c-4 -10 -5 -21 -2 -24 9 -9 17 6 13 25 -3 17 -4 17 -11
-1z"/>
<path d="M4210 4349 c0 -5 8 -9 18 -9 10 0 27 -7 38 -15 18 -12 24 -12 40 0
10 7 16 16 12 20 -10 11 -108 14 -108 4z"/>
<path d="M3650 4340 c19 -13 30 -13 30 0 0 6 -10 10 -22 10 -19 0 -20 -2 -8
-10z"/>
<path d="M4573 4340 c-30 -12 -29 -18 2 -12 14 2 25 8 25 13 0 5 -1 9 -2 8 -2
0 -13 -4 -25 -9z"/>
<path d="M910 4326 c0 -9 5 -16 10 -16 6 0 10 4 10 9 0 6 -4 13 -10 16 -5 3
-10 -1 -10 -9z"/>
<path d="M1229 4338 c-5 -17 -4 -48 3 -48 4 0 8 11 8 25 0 20 -7 34 -11 23z"/>
<path d="M1598 4334 c-8 -7 3 -54 13 -54 12 0 12 47 0 54 -4 3 -10 3 -13 0z"/>
<path d="M3910 4326 c8 -8 33 -18 55 -21 37 -6 38 -6 20 7 -11 8 -36 18 -55
22 -30 6 -33 5 -20 -8z"/>
<path d="M4485 4330 c-3 -5 3 -10 14 -10 12 0 21 5 21 10 0 6 -6 10 -14 10 -8
0 -18 -4 -21 -10z"/>
<path d="M50 4316 c0 -15 30 -26 73 -26 16 0 36 -4 46 -9 14 -8 17 -5 19 16 2
21 0 24 -13 13 -17 -14 -50 -6 -40 10 3 5 -3 10 -15 10 -12 0 -19 -4 -15 -9 3
-5 0 -13 -6 -17 -6 -4 -16 1 -21 10 -11 20 -28 21 -28 2z"/>
<path d="M665 4320 c-3 -5 1 -10 9 -10 9 0 16 5 16 10 0 6 -4 10 -9 10 -6 0
-13 -4 -16 -10z"/>
<path d="M1260 4313 c0 -13 5 -23 10 -23 13 0 13 11 0 30 -8 12 -10 11 -10 -7z"/>
<path d="M1289 4324 c-1 -5 0 -17 0 -27 1 -9 -5 -20 -14 -23 -13 -5 -13 -9 -3
-22 10 -12 10 -16 0 -19 -6 -3 -10 -9 -6 -14 3 -5 13 -2 22 8 12 12 13 18 4
21 -16 5 -16 22 1 22 7 0 12 11 12 25 -1 24 -14 47 -16 29z"/>
<path d="M2895 4320 c4 -6 11 -8 16 -5 14 9 11 15 -7 15 -8 0 -12 -5 -9 -10z"/>
<path d="M2940 4320 c0 -5 5 -10 10 -10 6 0 10 5 10 10 0 6 -4 10 -10 10 -5 0
-10 -4 -10 -10z"/>
<path d="M1120 4310 c0 -5 5 -10 10 -10 6 0 10 5 10 10 0 6 -4 10 -10 10 -5 0
-10 -4 -10 -10z"/>
<path d="M320 4299 c0 -5 5 -7 10 -4 6 3 10 8 10 11 0 2 -4 4 -10 4 -5 0 -10
-5 -10 -11z"/>
<path d="M1055 4300 c-19 -7 -19 -8 -2 -15 10 -4 23 -3 29 3 14 14 -3 21 -27
12z"/>
<path d="M975 4290 c-3 -5 1 -10 9 -10 9 0 16 5 16 10 0 6 -4 10 -9 10 -6 0
-13 -4 -16 -10z"/>
<path d="M2947 4280 c-3 -11 -1 -23 4 -26 5 -3 9 6 9 20 0 31 -6 34 -13 6z"/>
<path d="M3692 4285 c-11 -13 -10 -15 7 -15 14 0 19 5 15 15 -7 18 -6 18 -22
0z"/>
<path d="M4340 4290 c0 -5 12 -10 26 -10 14 0 23 4 19 10 -3 6 -15 10 -26 10
-10 0 -19 -4 -19 -10z"/>
<path d="M645 4280 c-3 -5 1 -10 9 -10 8 0 18 5 21 10 3 6 -1 10 -9 10 -8 0
-18 -4 -21 -10z"/>
<path d="M4195 4280 c-4 -6 5 -10 20 -10 15 0 24 4 20 10 -3 6 -12 10 -20 10
-8 0 -17 -4 -20 -10z"/>
<path d="M315 4269 c-10 -15 3 -25 16 -12 7 7 7 13 1 17 -6 3 -14 1 -17 -5z"/>
<path d="M730 4270 c0 -5 5 -10 10 -10 6 0 10 5 10 10 0 6 -4 10 -10 10 -5 0
-10 -4 -10 -10z"/>
<path d="M770 4271 c0 -6 4 -13 10 -16 6 -3 7 1 4 9 -7 18 -14 21 -14 7z"/>
<path d="M3025 4270 c-4 -7 -1 -16 6 -21 23 -14 32 -10 18 9 -7 9 -14 18 -15
20 -1 2 -5 -2 -9 -8z"/>
<path d="M3148 4273 c6 -2 18 -2 25 0 6 3 1 5 -13 5 -14 0 -19 -2 -12 -5z"/>
<path d="M4558 4273 c6 -2 18 -2 25 0 6 3 1 5 -13 5 -14 0 -19 -2 -12 -5z"/>
<path d="M385 4260 c-3 -5 -1 -10 4 -10 6 0 11 5 11 10 0 6 -2 10 -4 10 -3 0
-8 -4 -11 -10z"/>
<path d="M481 4254 c0 -11 3 -14 6 -6 3 7 2 16 -1 19 -3 4 -6 -2 -5 -13z"/>
<path d="M850 4260 c0 -5 7 -10 15 -10 8 0 15 5 15 10 0 6 -7 10 -15 10 -8 0
-15 -4 -15 -10z"/>
<path d="M1160 4260 c-13 -9 -13 -10 0 -10 8 0 22 5 30 10 13 9 13 10 0 10 -8
0 -22 -5 -30 -10z"/>
<path d="M1460 4260 c0 -5 5 -10 10 -10 6 0 10 5 10 10 0 6 -4 10 -10 10 -5 0
-10 -4 -10 -10z"/>
<path d="M3880 4260 c0 -5 9 -10 20 -10 11 0 20 5 20 10 0 6 -9 10 -20 10 -11
0 -20 -4 -20 -10z"/>
<path d="M3095 4250 c-3 -5 3 -10 14 -10 12 0 21 5 21 10 0 6 -6 10 -14 10 -8
0 -18 -4 -21 -10z"/>
<path d="M3510 4249 c0 -5 5 -7 10 -4 6 3 10 8 10 11 0 2 -4 4 -10 4 -5 0 -10
-5 -10 -11z"/>
<path d="M5 4240 c-3 -5 1 -10 9 -10 9 0 16 5 16 10 0 6 -4 10 -9 10 -6 0 -13
-4 -16 -10z"/>
<path d="M225 4240 c-3 -5 -1 -10 4 -10 6 0 11 5 11 10 0 6 -2 10 -4 10 -3 0
-8 -4 -11 -10z"/>
<path d="M4320 4235 c0 -9 5 -15 11 -13 6 2 11 8 11 13 0 5 -5 11 -11 13 -6 2
-11 -4 -11 -13z"/>
<path d="M640 4230 c0 -5 5 -10 11 -10 5 0 7 5 4 10 -3 6 -8 10 -11 10 -2 0
-4 -4 -4 -10z"/>
<path d="M950 4231 c0 -5 5 -13 10 -16 6 -3 10 -2 10 4 0 5 -4 13 -10 16 -5 3
-10 2 -10 -4z"/>
<path d="M1215 4230 c3 -5 11 -10 16 -10 6 0 7 5 4 10 -3 6 -11 10 -16 10 -6
0 -7 -4 -4 -10z"/>
<path d="M755 4220 c3 -5 8 -10 11 -10 2 0 4 5 4 10 0 6 -5 10 -11 10 -5 0 -7
-4 -4 -10z"/>
<path d="M1330 4220 c0 -5 7 -10 15 -10 8 0 18 0 22 -1 4 0 9 4 11 10 2 6 -8
11 -22 11 -14 0 -26 -4 -26 -10z"/>
<path d="M1415 4220 c-3 -5 1 -10 9 -10 9 0 16 5 16 10 0 6 -4 10 -9 10 -6 0
-13 -4 -16 -10z"/>
<path d="M1535 4220 c-3 -5 1 -10 9 -10 9 0 16 5 16 10 0 6 -4 10 -9 10 -6 0
-13 -4 -16 -10z"/>
<path d="M3165 4220 c-3 -5 -1 -10 4 -10 6 0 11 5 11 10 0 6 -2 10 -4 10 -3 0
-8 -4 -11 -10z"/>
<path d="M3992 4214 c-11 -12 -9 -14 8 -14 11 0 20 4 20 9 0 17 -15 19 -28 5z"/>
<path d="M3516 4203 c-6 -14 -5 -15 5 -6 7 7 10 15 7 18 -3 3 -9 -2 -12 -12z"/>
<path d="M3040 4200 c0 -5 7 -7 15 -4 8 4 15 8 15 10 0 2 -7 4 -15 4 -8 0 -15
-4 -15 -10z"/>
<path d="M3390 4200 c-13 -8 -12 -10 3 -10 9 0 17 5 17 10 0 12 -1 12 -20 0z"/>
<path d="M4210 4200 c0 -5 9 -10 20 -10 11 0 20 5 20 10 0 6 -9 10 -20 10 -11
0 -20 -4 -20 -10z"/>
<path d="M88 4193 c6 -2 18 -2 25 0 6 3 1 5 -13 5 -14 0 -19 -2 -12 -5z"/>
<path d="M345 4190 c-3 -5 -1 -10 4 -10 6 0 11 5 11 10 0 6 -2 10 -4 10 -3 0
-8 -4 -11 -10z"/>
<path d="M1170 4191 c0 -6 5 -13 10 -16 6 -3 10 1 10 9 0 9 -4 16 -10 16 -5 0
-10 -4 -10 -9z"/>
<path d="M4280 4190 c0 -5 4 -10 9 -10 6 0 13 5 16 10 3 6 -1 10 -9 10 -9 0
-16 -4 -16 -10z"/>
<path d="M4343 4193 c9 -2 23 -2 30 0 6 3 -1 5 -18 5 -16 0 -22 -2 -12 -5z"/>
<path d="M606 4181 c-4 -7 -5 -15 -2 -18 9 -9 19 4 14 18 -4 11 -6 11 -12 0z"/>
<path d="M1460 4180 c0 -5 5 -10 10 -10 6 0 10 5 10 10 0 6 -4 10 -10 10 -5 0
-10 -4 -10 -10z"/>
<path d="M4563 4183 c9 -2 23 -2 30 0 6 3 -1 5 -18 5 -16 0 -22 -2 -12 -5z"/>
<path d="M161 4164 c0 -11 3 -14 6 -6 3 7 2 16 -1 19 -3 4 -6 -2 -5 -13z"/>
<path d="M800 4170 c0 -5 5 -10 11 -10 5 0 7 5 4 10 -3 6 -8 10 -11 10 -2 0
-4 -4 -4 -10z"/>
<path d="M3940 4170 c0 -5 7 -10 15 -10 8 0 15 5 15 10 0 6 -7 10 -15 10 -8 0
-15 -4 -15 -10z"/>
<path d="M4320 4161 c0 -5 9 -7 20 -4 11 3 20 7 20 9 0 2 -9 4 -20 4 -11 0
-20 -4 -20 -9z"/>
<path d="M8 4123 c7 -3 16 -2 19 1 4 3 -2 6 -13 5 -11 0 -14 -3 -6 -6z"/>
<path d="M248 4123 c7 -3 16 -2 19 1 4 3 -2 6 -13 5 -11 0 -14 -3 -6 -6z"/>
<path d="M1352 4117 c-6 -7 -7 -19 -3 -26 6 -9 10 -6 14 10 8 28 3 34 -11 16z"/>
<path d="M4348 4123 c7 -3 16 -2 19 1 4 3 -2 6 -13 5 -11 0 -14 -3 -6 -6z"/>
<path d="M190 4105 c0 -8 5 -15 10 -15 6 0 10 7 10 15 0 8 -4 15 -10 15 -5 0
-10 -7 -10 -15z"/>
<path d="M568 4113 c7 -3 16 -2 19 1 4 3 -2 6 -13 5 -11 0 -14 -3 -6 -6z"/>
<path d="M4015 4111 c-3 -5 -1 -12 5 -16 5 -3 10 1 10 9 0 18 -6 21 -15 7z"/>
<path d="M3670 4100 c-13 -8 -12 -10 3 -10 9 0 17 5 17 10 0 12 -1 12 -20 0z"/>
<path d="M3330 3859 c0 -5 5 -7 10 -4 6 3 10 8 10 11 0 2 -4 4 -10 4 -5 0 -10
-5 -10 -11z"/>
<path d="M1070 2300 c0 -5 5 -10 10 -10 6 0 10 5 10 10 0 6 -4 10 -10 10 -5 0
-10 -4 -10 -10z"/>
<path d="M822 2190 c0 -14 2 -19 5 -12 2 6 2 18 0 25 -3 6 -5 1 -5 -13z"/>
<path d="M842 2150 c0 -14 2 -19 5 -12 2 6 2 18 0 25 -3 6 -5 1 -5 -13z"/>
<path d="M940 2135 c0 -13 55 -52 67 -48 17 7 17 23 -1 23 -7 0 -19 7 -26 15
-12 14 -40 21 -40 10z"/>
<path d="M1048 2103 c7 -3 16 -2 19 1 4 3 -2 6 -13 5 -11 0 -14 -3 -6 -6z"/>
<path d="M860 2081 c0 -5 5 -13 10 -16 6 -3 10 -2 10 4 0 5 -4 13 -10 16 -5 3
-10 2 -10 -4z"/>
<path d="M938 2043 c7 -3 16 -2 19 1 4 3 -2 6 -13 5 -11 0 -14 -3 -6 -6z"/>
<path d="M977 1994 c4 -25 2 -39 -8 -45 -10 -6 -8 -9 10 -9 17 0 22 4 17 16
-3 9 -6 29 -6 45 0 16 -4 29 -9 29 -6 0 -7 -16 -4 -36z"/>
<path d="M901 1994 c0 -11 3 -14 6 -6 3 7 2 16 -1 19 -3 4 -6 -2 -5 -13z"/>
<path d="M2390 490 c0 -12 40 -34 48 -26 3 4 -3 13 -14 21 -22 17 -34 19 -34
5z"/>
<path d="M2180 396 c0 -16 21 -26 53 -26 22 -1 22 -1 2 -16 -19 -16 -19 -16 5
-9 40 12 69 35 64 50 -4 10 -12 11 -36 3 -21 -7 -37 -7 -54 1 -32 14 -34 14
-34 -3z"/>
<path d="M4168 283 c7 -3 16 -2 19 1 4 3 -2 6 -13 5 -11 0 -14 -3 -6 -6z"/>
<path d="M1370 184 c0 -8 5 -12 10 -9 6 4 8 11 5 16 -9 14 -15 11 -15 -7z"/>
<path d="M3045 80 c-3 -5 1 -10 10 -10 9 0 13 5 10 10 -3 6 -8 10 -10 10 -2 0
-7 -4 -10 -10z"/>
</g>
</svg>
